<svg xmlns="http://www.w3.org/2000/svg" width="48" height="48" viewBox="0 0 48 48">
  <g id="Group_21363" data-name="Group 21363" transform="translate(-253 -317)">
    <g id="Rectangle_17451" data-name="Rectangle 17451" transform="translate(253 317)" fill="none" stroke="#fff" stroke-width="1" opacity="0">
      <rect width="48" height="48" stroke="none"/>
      <rect x="0.5" y="0.5" width="47" height="47" fill="none"/>
    </g>
    <g id="Group_21362" data-name="Group 21362" transform="translate(-1690.735 -26.177)">
      <path id="Path_23791" data-name="Path 23791" d="M1950.113,619.492q0-3.564,0-7.127a10.164,10.164,0,0,1,3.519-7.966,9.936,9.936,0,0,1,6.4-2.523.914.914,0,0,1,.5.177c.954.648,1.883,1.334,2.853,1.956a.627.627,0,0,1,.281.67,6.652,6.652,0,0,0,2.338,5.5,6.455,6.455,0,0,0,7.092,1.132,6.335,6.335,0,0,0,4.1-5.784,1.984,1.984,0,0,1,1.188-2.02,15.1,15.1,0,0,0,1.936-1.385,1.267,1.267,0,0,1,.71-.233,10.194,10.194,0,0,1,9.757,9.919c.08,2.561.021,5.126.024,7.689Z" transform="translate(-2.981 -228.316)" fill="#c58675"/>
      <path id="Path_23792" data-name="Path 23792" d="M1952.4,356.015h1.512a15.007,15.007,0,0,0-.04,12.808c-.038.04-.058.08-.078.08-1.436-.012-2.875.032-4.307-.058a3.056,3.056,0,0,1-2.7-2.917c-.063-2.326-.077-4.658.008-6.983a2.961,2.961,0,0,1,2.072-2.7.816.816,0,0,0,.536-.511,19.279,19.279,0,0,1,20.4-12.409,18.808,18.808,0,0,1,10.111,4.4,19,19,0,0,1,5.565,7.813,1.181,1.181,0,0,0,.719.76,2.983,2.983,0,0,1,1.987,2.813c.054,2.218.049,4.438.006,6.656a3.164,3.164,0,0,1-3.2,3.138c-1.276.072-2.56.014-3.932.014a15.072,15.072,0,0,0-.009-12.9h1.5a16.367,16.367,0,0,0-30.152,0Z" transform="translate(0 0)" fill="#c58675"/>
      <path id="Path_23793" data-name="Path 23793" d="M2043.567,468.167a11.94,11.94,0,0,1,.614,4.516,12.211,12.211,0,0,1-1.615,5.425.687.687,0,0,1-.7.391c-2.125-.006-4.251.019-6.376.008a2.111,2.111,0,0,1-.7-.257,5.822,5.822,0,0,0-1.445-.57,18.722,18.722,0,0,0-2.669-.02,2.3,2.3,0,0,0,0,4.591c.874.035,1.75.014,2.625.009a2.249,2.249,0,0,0,1.559-.653.632.632,0,0,1,.343-.2c1.48-.014,2.961-.009,4.5.07-.5.343-.986.71-1.5,1.025a12.1,12.1,0,0,1-14.2-1.374,11.951,11.951,0,0,1-3.807-11.929c.071-.345.217-.374.512-.326a10.279,10.279,0,0,0,7.186-1.441.524.524,0,0,1,.694.01c4.72,3.4,9.634,3.661,14.724.872Z" transform="translate(-64.547 -109.545)" fill="#c58675"/>
      <path id="Path_23794" data-name="Path 23794" d="M2032.66,410.175c2.417-3.888,5.792-6.081,10.31-6.215,4.564-.135,8.056,1.922,10.646,5.626a10.316,10.316,0,0,1-13.942-2.093A8.149,8.149,0,0,1,2032.66,410.175Z" transform="translate(-75.833 -53.639)" fill="#c58675"/>
      <path id="Path_23795" data-name="Path 23795" d="M2090.07,630.955a15.112,15.112,0,0,0,7.8.01,3.886,3.886,0,0,1-3.761,3.695A3.936,3.936,0,0,1,2090.07,630.955Z" transform="translate(-126.5 -253.979)" fill="#c58675"/>
    </g>
  </g>
</svg>
