<svg xmlns="http://www.w3.org/2000/svg" width="48" height="48" viewBox="0 0 48 48">
  <g id="Group_21204" data-name="Group 21204" transform="translate(-30 -728)">
    <g id="Rectangle_17451" data-name="Rectangle 17451" transform="translate(30 728)" fill="none" stroke="#fff" stroke-width="1" opacity="0">
      <rect width="48" height="48" stroke="none"/>
      <rect x="0.5" y="0.5" width="47" height="47" fill="none"/>
    </g>
    <g id="Group_21203" data-name="Group 21203" transform="translate(-26.122 233.482)">
      <path id="Path_23598" data-name="Path 23598" d="M78.225,535.107H90.956c0-1.009.006-1.986-.011-2.963,0-.078-.147-.179-.246-.227a4.189,4.189,0,0,1-1.888-6.14q1.636-2.841,3.28-5.676c.076-.131.161-.257.273-.436.114.18.207.316.289.457,1.031,1.783,1.994,3.611,3.108,5.341a4.317,4.317,0,0,1-1.973,6.578v3.035h12.617a14.838,14.838,0,0,1-.469,4.95,12.687,12.687,0,0,1-12.131,9.218,33.3,33.3,0,0,1-4.907-.195,12.591,12.591,0,0,1-10.39-10.326C78.325,537.545,78.317,536.34,78.225,535.107Z" transform="translate(-5.113 -6.73)" fill="#c58675"/>
      <path id="Path_23599" data-name="Path 23599" d="M78.8,534.326H70.474c-.04.058-.073.082-.073.107a39.083,39.083,0,0,0,.255,6.963,15.5,15.5,0,0,0,5.9,9.583c.1.081.205.168.369.3H59.169v-16.2a16.7,16.7,0,0,0,1.971.576,5.6,5.6,0,0,0,6.429-5.354c.022-.981,0-1.963,0-2.973H78.8Z" transform="translate(-0.013 -8.781)" fill="#c58675"/>
      <path id="Path_23600" data-name="Path 23600" d="M78.791,510.062V515.7H64.749v.528c0,1.641,0,3.282,0,4.923a2.817,2.817,0,1,1-5.625.018q0-5.3,0-10.6V510.1h8.409v-3.094a4.257,4.257,0,0,1-2.508-2.488,3.74,3.74,0,0,1,.108-3.184c1.217-2.266,2.511-4.491,3.821-6.816.126.207.212.343.292.483,1.044,1.832,2.018,3.706,3.144,5.485a4.317,4.317,0,0,1-2,6.54v3.036Z" transform="translate(0 0)" fill="#c58675"/>
      <path id="Path_23601" data-name="Path 23601" d="M104.79,498.522v2.77h-.571q-5.976,0-11.951,0a1.423,1.423,0,0,0-1.329.717,1.3,1.3,0,0,0,.023,1.421,1.462,1.462,0,0,0,1.353.68c2.765-.007,5.53-.017,8.3,0a4.212,4.212,0,0,1,.241,8.416c-1.466.055-2.935.01-4.441.01v-2.783c.137-.007.287-.02.437-.02,1.2,0,2.406,0,3.608,0a1.411,1.411,0,1,0-.005-2.81c-2.781,0-5.562.018-8.342-.01a4.207,4.207,0,0,1-4.169-4.423,4.159,4.159,0,0,1,3.935-3.984c4.264-.053,8.529-.018,12.794-.017A.583.583,0,0,1,104.79,498.522Z" transform="translate(-7.711 -1.058)" fill="#c58675"/>
    </g>
  </g>
</svg>
