<svg xmlns="http://www.w3.org/2000/svg" width="48" height="48" viewBox="0 0 48 48">
  <g id="Group_21208" data-name="Group 21208" transform="translate(-749 -728)">
    <g id="Rectangle_17451" data-name="Rectangle 17451" transform="translate(749 728)" fill="none" stroke="#fff" stroke-width="1" opacity="0">
      <rect width="48" height="48" stroke="none"/>
      <rect x="0.5" y="0.5" width="47" height="47" fill="none"/>
    </g>
    <g id="Group_21207" data-name="Group 21207" transform="translate(510.099 241.7)">
      <path id="Path_23608" data-name="Path 23608" d="M282.317,540.257H243.477q-.017-12.614-.02-25.227a12.723,12.723,0,0,1,.27-2.65A13.338,13.338,0,0,1,256.9,501.719c3.987-.016,7.973-.033,11.959.017a14.975,14.975,0,0,1,3.381.419,13.294,13.294,0,0,1,10.076,13.021q.029,12.309.029,24.618C282.349,539.947,282.328,540.1,282.317,540.257Zm-5-5.417c.009-.149.023-.271.023-.392-.009-3.313,0-6.627-.039-9.94a17.36,17.36,0,0,0-.234-2.655,14.413,14.413,0,0,0-28.6,2.636c-.006,3.282.019,6.565.031,9.847,0,.166.017.331.026.505Z" transform="translate(0 -5.957)" fill="#c58675"/>
      <path id="Path_23609" data-name="Path 23609" d="M278.911,486.3a29.061,29.061,0,0,1-.192,3.692,3.648,3.648,0,0,1-3.633,2.943q-6.306.028-12.613,0a3.727,3.727,0,0,1-3.727-3.344,32.129,32.129,0,0,1-.02-3.291Z" transform="translate(-5.894 0)" fill="#c58675"/>
      <path id="Path_23610" data-name="Path 23610" d="M271.071,527.285a10.424,10.424,0,0,1,2.3,3.886,2.288,2.288,0,0,1-.8,2.559c-.1.078-.186.163-.278.247-.009.009-.007.029-.022.091h5.275v7.841H264.611v-7.8h5.23l.118-.16a1.76,1.76,0,0,1-.314-.154,2.318,2.318,0,0,1-.849-2.744A10.768,10.768,0,0,1,271.071,527.285Z" transform="translate(-8.183 -15.852)" fill="#c58675"/>
    </g>
  </g>
</svg>
