<svg xmlns="http://www.w3.org/2000/svg" width="48" height="48" viewBox="0 0 48 48">
  <g id="Group_21210" data-name="Group 21210" transform="translate(-1099 -728)">
    <g id="Rectangle_17451" data-name="Rectangle 17451" transform="translate(1099 728)" fill="none" stroke="#fff" stroke-width="1" opacity="0">
      <rect width="48" height="48" stroke="none"/>
      <rect x="0.5" y="0.5" width="47" height="47" fill="none"/>
    </g>
    <g id="Group_21209" data-name="Group 21209" transform="translate(949.939 241.712)">
      <path id="Path_23611" data-name="Path 23611" d="M166.181,554.945c0-.469-.035-.938-.007-1.4a.979.979,0,0,0-.346-.815,27.326,27.326,0,0,1-4.192-4.778,17.936,17.936,0,0,1-2.659-7.67c-.02-.185-.02-.372-.03-.592h7c0,.164,0,.33,0,.5,0,1.109-.03,2.22.025,3.326a4.159,4.159,0,0,0,4.1,4.006q2.951.059,5.9,0a4.16,4.16,0,0,0,4.1-4.062c.041-1.077.013-2.155.017-3.233v-.535h7.083c-.172,1-.289,1.985-.516,2.944a17.4,17.4,0,0,1-4.74,8.415c-.584.586-1.186,1.157-1.746,1.766a1.239,1.239,0,0,0-.278.687c-.045.48-.02.967-.025,1.451Z" transform="translate(0 -20.657)" fill="#c58675"/>
      <path id="Path_23612" data-name="Path 23612" d="M166.646,510.146H179.44c0,.5-.028.982.012,1.458a1.149,1.149,0,0,0,.27.643c1.224,1.314,2.554,2.538,3.687,3.924a16.94,16.94,0,0,1,3.695,9.2h-6.972c-.007-.153-.02-.32-.021-.486-.007-1.141.025-2.283-.026-3.421a4.139,4.139,0,0,0-4-3.91q-3.045-.059-6.093,0a4.137,4.137,0,0,0-4,3.86c-.064,1.122-.026,2.249-.034,3.374,0,.185,0,.37,0,.59h-6.976a17.252,17.252,0,0,1,1-4.419,17.568,17.568,0,0,1,4.139-6.452c.752-.751,1.513-1.492,2.245-2.262a1.133,1.133,0,0,0,.267-.644C166.674,511.136,166.646,510.665,166.646,510.146Z" transform="translate(-0.017 -9.23)" fill="#c58675"/>
      <path id="Path_23613" data-name="Path 23613" d="M183.472,533.262c0,1.609,0,3.219,0,4.829a1.448,1.448,0,0,1-1.649,1.632q-2.6,0-5.2,0a1.451,1.451,0,0,1-1.662-1.624q-.006-4.852,0-9.7a1.433,1.433,0,0,1,1.629-1.6q2.649,0,5.3,0a1.423,1.423,0,0,1,1.587,1.594C183.476,530.012,183.472,531.637,183.472,533.262Z" transform="translate(-6.192 -15.669)" fill="#c58675"/>
      <path id="Path_23614" data-name="Path 23614" d="M176.067,486.288h5.6V491.9h2.018v6.151h-9.631v-6.129h2.014Z" transform="translate(-5.845)" fill="#c58675"/>
    </g>
  </g>
</svg>
