<svg xmlns="http://www.w3.org/2000/svg" width="54" height="53.668" viewBox="0 0 54 53.668">
  <g id="Group_21217" data-name="Group 21217" transform="translate(0.165)">
    <g id="Rectangle_17468" data-name="Rectangle 17468" transform="translate(-0.165 0.475)" fill="none" stroke="#fff" stroke-width="1" opacity="0">
      <rect width="54" height="53" stroke="none"/>
      <rect x="0.5" y="0.5" width="53" height="52" fill="none"/>
    </g>
    <path id="Path_23616" data-name="Path 23616" d="M444.939,681.89c0,7.454-2.508,9.773-15.857,31.177a5.035,5.035,0,0,1-8.539,0c-13.342-21.392-15.857-23.722-15.857-31.177a20.126,20.126,0,0,1,40.252,0Zm-5.032,0a15.094,15.094,0,1,0-30.188,0c0,5.743,1.737,7.095,15.094,28.512C438.317,688.748,439.907,687.608,439.907,681.89ZM424.812,673.5a8.386,8.386,0,1,1-8.386,8.386A8.386,8.386,0,0,1,424.812,673.5Z" transform="translate(-397.531 -661.765)" fill="#282c3f"/>
  </g>
</svg>
