<svg xmlns="http://www.w3.org/2000/svg" width="48" height="48" viewBox="0 0 48 48">
  <g id="Group_21206" data-name="Group 21206" transform="translate(-460 -728)">
    <g id="Rectangle_17451" data-name="Rectangle 17451" transform="translate(460 728)" fill="none" stroke="#fff" stroke-width="1" opacity="0">
      <rect width="48" height="48" stroke="none"/>
      <rect x="0.5" y="0.5" width="47" height="47" fill="none"/>
    </g>
    <g id="Group_21205" data-name="Group 21205" transform="translate(132.037 241.73)">
      <path id="Path_23602" data-name="Path 23602" d="M338.411,553.343q.006-2.835.013-5.669,0-5.763,0-11.526v-.6h19.019c.153.689.143.691-.5.934a11.178,11.178,0,0,0-5.229,4.239,18.452,18.452,0,0,0-2.732,5.815,1.826,1.826,0,0,1-.462.717c-.793.833-1.608,1.645-2.418,2.469a19.24,19.24,0,0,0,3.655,3.617Z" transform="translate(0 -19.073)" fill="#c58675"/>
      <path id="Path_23603" data-name="Path 23603" d="M363.715,560.1a9.968,9.968,0,0,1-3.447-1.234c-1.073-.685-2.1-1.446-3.225-2.231.455-.4.794-.708,1.151-1a12.31,12.31,0,0,1,4.19-2.309,7.311,7.311,0,0,1,4.727.166,13.953,13.953,0,0,1,4.729,3.062c-.35.3-.667.593-1,.862a11.1,11.1,0,0,1-5.5,2.619.44.44,0,0,0-.125.06Z" transform="translate(-7.211 -25.832)" fill="#c58675"/>
      <path id="Path_23604" data-name="Path 23604" d="M357.517,526.617H338.5a5.786,5.786,0,0,1,3.557-6.23,6.974,6.974,0,0,1,2.32-.454c2.389-.057,4.779-.026,7.169-.019a5.85,5.85,0,0,1,5.974,5.952C357.519,526.1,357.517,526.331,357.517,526.617Z" transform="translate(-0.01 -13.015)" fill="#c58675"/>
      <path id="Path_23605" data-name="Path 23605" d="M354.907,497.32H349.8c.047-.854.123-1.689.131-2.524.02-1.982,0-3.964.007-5.945a2.442,2.442,0,1,1,4.876.01c0,1.56-.01,3.121,0,4.681C354.832,494.8,354.877,496.051,354.907,497.32Z" transform="translate(-4.408 0)" fill="#c58675"/>
      <path id="Path_23606" data-name="Path 23606" d="M361.93,546.35c2.559-5.427,6.7-6.949,12.672-4.96,0,.04.025.091.01.127a13.123,13.123,0,0,1-3.146,4.82.576.576,0,0,1-.509.091,10.463,10.463,0,0,0-8.886-.113A1.132,1.132,0,0,1,361.93,546.35Z" transform="translate(-9.102 -21.009)" fill="#c58675"/>
      <path id="Path_23607" data-name="Path 23607" d="M345.149,512.838v-3.872H356v3.872Z" transform="translate(-2.608 -8.784)" fill="#c58675"/>
    </g>
  </g>
</svg>
