<svg xmlns="http://www.w3.org/2000/svg" width="48" height="48" viewBox="0 0 48 48">
  <g id="Group_21369" data-name="Group 21369" transform="translate(-1223 -317)">
    <g id="Rectangle_17451" data-name="Rectangle 17451" transform="translate(1223 317)" fill="none" stroke="#fff" stroke-width="1" opacity="0">
      <rect width="48" height="48" stroke="none"/>
      <rect x="0.5" y="0.5" width="47" height="47" fill="none"/>
    </g>
    <g id="Group_21368" data-name="Group 21368" transform="translate(-1170.887 -24.825)">
      <path id="Path_23804" data-name="Path 23804" d="M2419.269,342.265h.644a1.909,1.909,0,0,0,.305.079,22.783,22.783,0,0,1,6.277,1.508c.7.276,1.384.606,2.1.922l-2.211,3.789,2.384,1.391,2.207-3.761A23.843,23.843,0,0,1,2437.69,353l-3.791,2.158,1.365,2.4,3.794-2.146a23.365,23.365,0,0,1,2.386,9.038h-4.333v2.759h4.334a23.363,23.363,0,0,1-2.529,9.306l-3.767-2.2-1.393,2.38,3.76,2.209a23.822,23.822,0,0,1-6.808,6.717l-2.156-3.791-2.4,1.365,2.124,3.752c-1.606,1.124-7.28,2.618-9.025,2.364v-5.431H2416.5v5.5a23.527,23.527,0,0,1-9.3-2.533l2.2-3.771-2.385-1.388-2.2,3.759a23.765,23.765,0,0,1-6.717-6.806l3.792-2.155-1.364-2.4-3.77,2.13a21.179,21.179,0,0,1-1.954-5.568c-.176-.931-.309-1.87-.462-2.8V367.2h4.341v-2.761h-4.341V363.8a1.937,1.937,0,0,0,.079-.308,21.879,21.879,0,0,1,1.223-5.5c.352-.968.779-1.907,1.184-2.889l3.813,2.222,1.394-2.381-3.762-2.208a23.78,23.78,0,0,1,6.807-6.714l1.082,1.9,1.075,1.887,2.4-1.364-1.083-1.912-1.049-1.859a21.323,21.323,0,0,1,5.571-1.952c.93-.176,1.867-.309,2.8-.461h.645v4.342h2.761Zm-8.442,22.178v2.762h5.092l-1.286,2.282,2.4,1.364c.533-.931,1.1-1.807,1.547-2.743a1.378,1.378,0,0,1,1.577-.925,25.662,25.662,0,0,0,2.6.02v-2.781h-2.05l6.212-10.907-2.4-1.36c-.117.2-.2.342-.287.487q-3.254,5.706-6.5,11.417a.66.66,0,0,1-.677.391c-1.732-.018-3.465-.008-5.2-.008Z" transform="translate(0 0)" fill="#c58675"/>
    </g>
  </g>
</svg>
