<svg xmlns="http://www.w3.org/2000/svg" width="58.625" height="58.625" viewBox="0 0 58.625 58.625">
  <path id="Path_23091" data-name="Path 23091" d="M89.113,1029.994A22,22,0,0,1,62.555,1051.5l-4.586,4.6v2.29a2.749,2.749,0,0,1-2.748,2.748H52.473v2.748a2.749,2.749,0,0,1-2.748,2.748H33.236a2.749,2.749,0,0,1-2.748-2.748v-14.879a2.743,2.743,0,0,1,.8-1.943l14.058-14.057a21.985,21.985,0,1,1,43.762-3.014Zm-38.472,0,0,.012a16.459,16.459,0,0,0,.7,4.777l-15.364,15.363v10.993H46.977v-5.5h5.5v-5.5h3.664l4.847-4.847a16.491,16.491,0,1,0-10.343-15.3ZM72.625,1019a5.5,5.5,0,1,1-5.5,5.5A5.5,5.5,0,0,1,72.625,1019Z" transform="translate(-30.488 -1008.01)" fill="#282c3f"/>
</svg>
