<svg xmlns="http://www.w3.org/2000/svg" width="58.625" height="55.877" viewBox="0 0 58.625 55.877">
  <path id="Path_23080" data-name="Path 23080" d="M298,964.127a1.372,1.372,0,0,1-.4.971l-1.991,1.991a1.376,1.376,0,0,1-2.119-.212,17.4,17.4,0,0,1,14.54-26.959h25.587l-6.384-6.245a1.374,1.374,0,0,1-.011-1.954l1.932-1.933a1.376,1.376,0,0,1,1.944,0L343,941.694a1.376,1.376,0,0,1,0,1.944l-11.908,11.908a1.376,1.376,0,0,1-1.944,0l-1.932-1.933a1.374,1.374,0,0,1,.011-1.954l6.384-6.245H308.024A11.9,11.9,0,0,0,297.8,963.42,1.372,1.372,0,0,1,298,964.127Zm33.845,10.6H306.254l6.385,6.245a1.374,1.374,0,0,1,.01,1.954l-1.932,1.932a1.374,1.374,0,0,1-1.944,0L296.865,972.95a1.375,1.375,0,0,1,0-1.943L308.773,959.1a1.376,1.376,0,0,1,1.944,0l1.932,1.932a1.374,1.374,0,0,1-.01,1.954l-6.385,6.245h25.587a11.9,11.9,0,0,0,10.224-18.005,1.377,1.377,0,0,1,.206-1.678l1.992-1.991a1.374,1.374,0,0,1,2.118.212,17.4,17.4,0,0,1-14.54,26.959Z" transform="translate(-290.62 -929.384)" fill="#282c3f"/>
</svg>
