<svg xmlns="http://www.w3.org/2000/svg" width="48" height="48" viewBox="0 0 48 48">
  <g id="Group_21365" data-name="Group 21365" transform="translate(-584 -317)">
    <g id="Rectangle_17451" data-name="Rectangle 17451" transform="translate(584 317)" fill="none" stroke="#fff" stroke-width="1" opacity="0">
      <rect width="48" height="48" stroke="none"/>
      <rect x="0.5" y="0.5" width="47" height="47" fill="none"/>
    </g>
    <g id="Group_21364" data-name="Group 21364" transform="translate(-2296.371 -25.265)">
      <path id="Path_23796" data-name="Path 23796" d="M2916.838,342.265c.92.156,1.851.267,2.759.476a17.156,17.156,0,0,1,13.181,17.292,13.291,13.291,0,0,1-1.466,5.1,40.386,40.386,0,0,1-5.887,8.708,91.742,91.742,0,0,1-9.5,9.572c-.092.081-.191.152-.321.255-.776-.7-1.549-1.377-2.3-2.077a77.817,77.817,0,0,1-10.289-11.327,34.867,34.867,0,0,1-3.288-5.551,13.2,13.2,0,0,1-.683-9.726c2.1-6.949,6.772-11.1,13.887-12.507.487-.1.983-.142,1.475-.211Zm-1.218,26.781a9.711,9.711,0,0,0,9.874-9.907,9.876,9.876,0,0,0-19.751-.044A9.714,9.714,0,0,0,2915.621,369.046Z" transform="translate(-11.413)" fill="#c58675"/>
      <path id="Path_23797" data-name="Path 23797" d="M2885.371,607.673c.264-.888.521-1.752.779-2.615.4-1.33.806-2.657,1.186-3.992a.5.5,0,0,1,.576-.436c1.468.021,2.937.009,4.406.009h.552v-2.82h-4.547l2.1-7.005a92.7,92.7,0,0,0,13.782,13.988,93.451,93.451,0,0,0,13.78-13.987c.853,2.843,1.677,5.592,2.524,8.414h-6.4v2.812h2.777v5.631Z" transform="translate(0 -217.41)" fill="#c58675"/>
      <path id="Path_23798" data-name="Path 23798" d="M3159.907,686.364v-5.591h1.6l1.676,5.591Z" transform="translate(-240.141 -296.099)" fill="#c58675"/>
      <path id="Path_23799" data-name="Path 23799" d="M2986.489,421.531a6.906,6.906,0,0,1,7.045,7.08,7.05,7.05,0,0,1-14.1-.012A6.907,6.907,0,0,1,2986.489,421.531Zm-.027,2.788a4.222,4.222,0,0,0-4.206,4.2,4.228,4.228,0,1,0,8.455-.043A4.221,4.221,0,0,0,2986.461,424.319Z" transform="translate(-82.277 -69.335)" fill="#c58675"/>
    </g>
  </g>
</svg>
